<svg xmlns="http://www.w3.org/2000/svg" height="800" width="80" viewBox="0 0 512 512" fill="#fc3" xmlns:v="https://vecta.io/nano"><path d="M201.905 145.195c0 13.862 5.214 26.498 13.785 36.064h80.619c8.571-9.566 13.789-22.202 13.789-36.064 0-18.74-9.538-35.252-24.017-44.965l8.256-16.862c2.814-.448 5.376-2.201 6.721-4.948a9.02 9.02 0 0 0-4.138-12.061c-4.472-2.194-9.875-.344-12.058 4.134-1.584 3.231-1.048 6.932 1.052 9.573l-7.73 15.797c-6.77-3.048-14.276-4.758-22.181-4.758-7.912 0-15.415 1.71-22.188 4.758l-7.726-15.797c2.099-2.642 2.635-6.342 1.055-9.573a9.01 9.01 0 0 0-12.061-4.134c-4.475 2.187-6.329 7.59-4.138 12.061 1.346 2.747 3.907 4.5 6.721 4.948l8.256 16.862c-14.486 9.713-24.017 26.225-24.017 44.965zm-19.385 65.261c20.608-10.302 14.805-25.188 5.354-35.63C163.402 147.774 78.392 98.828 33.97 91.105c-12.688-2.215-40.357-.862-32.63 38.644 2.663 13.61 21.47 73.838 62.686 94.457 41.214 20.597 100.946-4.976 118.494-13.75zm20.955 1.485c-4.394 4.219-10.004 7.443-15.194 10.036-10.761 5.382-48.862 22.932-87.386 22.932-3.413 0-6.732-.168-9.987-.442-21.442 22.756-28.973 53.55-17.44 73.328 12.026 20.611 47.33 26.505 72.991 10.302 32.63-20.604 52.804-80.721 56.241-97.884.978-4.9 2.867-14.964.775-18.272zM478.03 91.105c-44.422 7.723-129.432 56.669-153.905 83.72-9.447 10.442-15.253 25.328 5.351 35.63 17.549 8.774 77.284 34.347 118.499 13.75 41.219-20.619 60.022-80.847 62.685-94.457 7.727-39.505-19.941-40.858-32.63-38.643zm-66.929 153.803c-38.52 0-76.621-17.549-87.382-22.932-5.186-2.593-10.804-5.816-15.194-10.036-2.092 3.308-.207 13.372.774 18.271 3.434 17.163 23.614 77.28 56.241 97.884 25.657 16.203 60.964 10.309 72.987-10.302 11.535-19.778 4.005-50.572-17.437-73.328-3.254.275-6.572.443-9.989.443zm-117.104-53.346h-75.994a5.16 5.16 0 0 0-5.155 5.158v32.841a5.16 5.16 0 0 0 5.155 5.158h75.994a5.16 5.16 0 0 0 5.151-5.158V196.72a5.16 5.16 0 0 0-5.151-5.158zm-76.646 55.392c-3.346 3.182-13.729 19-20.734 39.926h118.766c-7.005-20.927-17.388-36.744-20.734-39.926h-77.298zm-26.845 66.971c-.869 7.842-.925 15.916.214 23.948.816 5.746 2.011 11.052 3.48 15.986h123.608c1.472-4.934 2.66-10.239 3.473-15.986 1.139-8.032 1.083-16.105.214-23.948H190.506zm59.22 98.431l4.692 31.67a2.98 2.98 0 0 0 2.95 2.538c1.479 0 2.737-1.079 2.95-2.538l4.846-32.721c10.169-3.904 26.824-12.573 39.582-30.402h-97.481c14.06 19.63 32.835 28.173 42.461 31.453z"/></svg>
