<svg xmlns="http://www.w3.org/2000/svg" height="800" width="80" viewBox="0 0 512 512" xmlns:v="https://vecta.io/nano"><path fill="#fc3" d="M511.874 101.045c-3.342-26.822-23.472-32.41-34.632-32.41h-21.517s-4.194-17.599-16.772-17.599h-34.364l-17.875-5.588c-6.716 4.469 2.223 16.764 2.223 16.764s-12.28 9.782-12.28 47.779v38.856c0 34.979-38.687 55.298-56.491 30.557C304 156.934 258.138 44.606 258.138 44.606a28.51 28.51 0 0 0-26.033-16.591c-11.184.056-21.304 6.645-25.875 16.844l-23.952 53.366c-1.75 3.893-5.525 6.486-9.781 6.723a11.42 11.42 0 0 1-10.459-5.604L135.24 53.779c-5.486-9.324-15.779-14.746-26.577-13.982-10.79.756-20.232 7.558-24.354 17.568l-53.531 129.7C8.938 207.225 0 227.347 0 251.93v67.056c0 13.414 22.353 15.644 22.353 2.238v-58.119s15.644-11.176 15.644 0v84.94c0 15.652-17.883 31.298-17.883 40.235 0 8.946 31.298 93.885 31.298 93.885h31.289s-20.114-71.525-20.114-80.471c0-7.148 19.472-30.202 28.835-45.847-.95 14.502-14.352 29.855-13.497 38.028.93 8.89 40.89 90.11 40.89 90.11l31.124-3.255s-27.452-69.043-28.382-77.941c-.93-8.891 25.891-45.753 27.53-59.065l2.144-18.207c-.973-9.3 2.432-15.786 9.064-19.94h98.551c20.114 0 17.876 15.645 15.645 24.582-2.239 8.946-19.665 58.119-19.665 58.119l2.231 93.885h31.298l2.23-89.416c0-2.325 4.158-11.152 9.604-22.178l1.572 17.71 13.414 93.885h31.29l-8.938-89.416c0-5.604 5.206-70.596 7.792-99.592 105.286 12.28 105.345-58.797 105.345-138.236 0-29.058 4.477-29.058 14.534-29.058s25.458 2.01 34.395-1.348c8.937-3.35 6.699-11.176 6.699-11.176s6.701-1.117 5.582-12.293z"/></svg>
