<svg xmlns="http://www.w3.org/2000/svg" height="800" width="800" viewBox="0 0 512 512" fill="#fc3" xmlns:v="https://vecta.io/nano"><path d="M78.131 72.577l4.836.05 4.126.04c12.733 0 24.693 3.783 35.341 9.959 10.332-12.382 15.5-23.72 15.5-32.199a19.07 19.07 0 0 0-19.068-19.063c-5.74 0-10.892 2.552-14.388 6.583.06-.606.1-1.202.1-1.817 0-10.535-8.548-19.063-19.068-19.063-10.534 0-19.068 8.528-19.068 19.063 0 .288.03.576.045.854a17.44 17.44 0 0 0-11.159-4.031c-9.652 0-17.485 7.834-17.485 17.474 0 6.513 3.654 15.102 11.875 26.372 9.887-3.339 19.319-4.222 28.413-4.222zm-43.676 94.332S22.853 179.48 7.379 209.454c-17.539 33.996 30.759 56.088 41.393 23.203 7.164-22.12-9.477-66.234-14.317-65.748zm-.854-16.432c-4.413-14.824-7.893-27.889-11.234-40.171-6.578 7.038-13.504 15.895-20.797 27.105-8.191 12.609 17.926 11.209 26.123 11.596 2.055.101 4.022.627 5.908 1.47zm465.545-11.615c-34.87-36.906-104.446-43.518-149.423 2.898-48.238 49.812-36.448 108.8-95.738 108.8s-94.283-49.326-100.097-94.284c0-7.069-1.112-13.86-3.198-20.224-8.504-26.163-34.536-52.304-63.524-52.304-14.6 0-33.644-2.333-57.691 19.539 4.925 17.921 9.834 36.976 17.355 60.556 16.556 27.86 22.905 89.368 17.971 135.776-7.839 67.892 10.986 123.286 70.236 167.091 66.721 49.326 229.2 52.225 248.055-143.62 30.074 7.853 55.407-40.858 35.7-59.056 39.873 18.398 80.751-33.997 44.088-58.441 50.767 8.697 60.929-40.63 36.266-66.731zM75.56 137.779a11.98 11.98 0 0 1-11.974-11.974c0-6.612 5.366-11.964 11.974-11.964s11.964 5.352 11.964 11.964-5.356 11.974-11.964 11.974zm180.877 266.002c-32.497 0-60.417-10.306-82.424-25.17-22.037-14.874-38.266-34.195-47.911-52.781-6.394-12.411-9.964-24.484-9.993-35.247a46.34 46.34 0 0 1 .084-2.76l14.476.904c-.045.596-.06 1.211-.06 1.856-.014 5.56 1.5 12.758 4.682 20.582 3.157 7.804 7.938 16.274 14.203 24.574 12.53 16.631 30.987 32.626 54.221 42.694 15.484 6.722 33.112 10.833 52.722 10.833 24.092 0 51.267-6.206 81.228-21.834l6.706 12.867c-31.742 16.571-61.315 23.482-87.934 23.482z"/></svg>