<svg xmlns="http://www.w3.org/2000/svg" height="800" width="80" viewBox="0 0 512 512" fill="#fc3" xmlns:v="https://vecta.io/nano"><path d="M441.774 175.465s-21.366 25.427-48.499 41.67l-3.423-2.904c-44.254-35.407-136.084 9.59-153.788 8.113-17.696-1.475-34.785-26.232-21.509-72.697 13.276-46.473 6.646-65.733-1.987-86.962 27.502-36.628 7.588-59.869 7.588-59.869-39.835 4.987-54.723 40.617-54.723 40.617s-14.608 3.974-22.57 7.301c-18.366 7.642-32.527 23.894-37.832 45.802-5.314 21.9-19.922 32.519-24.565 35.838-2.657.671-6.789-.63-10.619 4.652-4.148 5.712-1.611 21.27 14.6 16.602 12.606 2.649 54.435 6.63 75.681-3.318 0 0-13.084 41.215-6.494 109.309 6.096 62.924 40.641 125.41 40.641 125.41s-23.854 94.949-33.82 100.917c-9.956 5.975-13.946 21.908-13.946 21.908 7.97 5.975 36.844 2.992 36.844 2.992l40.569-119.434-1.133-59.901s44.263 6.638 79.662 2.21 53.239-3.821 53.239-3.821 32.958 70.288 26.376 83.468c-2.975 5.944-23.583 72.825-23.583 72.825s-11.863 10.866-13.834 22.73c0 0 22.339 6.925 37.155 0l.989-15.813s38.918-85.318 32.216-101.698c-19.77-48.332.966-72.658 2.178-76.878 9.326-32.583 6.438-57.442-6.382-77.524 45.258-18.471 30.969-61.545 30.969-61.545zm-190.95 83.596c-5.76 0-10.436-4.667-10.436-10.428a10.45 10.45 0 0 1 10.436-10.444c5.768 0 10.435 4.683 10.435 10.444a10.43 10.43 0 0 1-10.435 10.428zm20.982-23.895c0-6.398 5.202-11.608 11.616-11.608s11.608 5.21 11.608 11.608a11.6 11.6 0 0 1-11.608 11.608c-6.414 0-11.616-5.186-11.616-11.608zm18.869 38.718c-4.38 0-7.922-3.542-7.922-7.922s3.542-7.93 7.922-7.93a7.93 7.93 0 0 1 7.93 7.93c0 4.38-3.55 7.922-7.93 7.922zm31.266-58.998c4.372 0 7.923 3.55 7.923 7.938 0 4.372-3.55 7.915-7.923 7.915a7.93 7.93 0 0 1-7.938-7.915 7.94 7.94 0 0 1 7.938-7.938zm3.559 52.408c-6.366 0-11.521-5.162-11.521-11.528 0-6.375 5.154-11.537 11.521-11.537 6.375 0 11.537 5.162 11.537 11.537 0 6.366-5.162 11.528-11.537 11.528zm31.849-28.011c-6.366 0-11.528-5.154-11.528-11.521 0-6.375 5.162-11.536 11.528-11.536a11.54 11.54 0 0 1 11.536 11.536c0 6.366-5.17 11.521-11.536 11.521zM141.555 401.28l-10.978-60.404 26.248-9.206c-4.229-12.254-8.234-25.706-11.314-39.74-11.799 5.473-25.698 12.343-40.194 20.4-10.291 5.72-8.481 15.693-6.606 21.956l21.972 76.878s4.388 26.352 19.77 32.95l14.28-31.857-13.178-10.977zm218.539-23.049c-1.03-3.191-1.716-6.43-2.154-9.702-3.248-8.29-6.909-17.026-10.667-25.371-5.608.167-14.113.614-25.402 1.684 2.05 12.582 4.507 24.66 6.358 31.187 7.659 26.942-17.64 96.927-22.427 99.871-15.996 9.781-17.792 24.9-17.792 24.9s23.137 5.338 34.713.894c4.963-1.915 6.199-16.906 6.199-16.906s41.176-75.601 31.172-106.557zM170.291 18.566S161.93 1.86 154.502 0c0 0-12.071 18.566-12.071 40.848l15.781-4.643c.001.001 8.362-14.855 12.079-17.639z"/></svg>
