<svg xmlns="http://www.w3.org/2000/svg" width="80" height="800" viewBox="0 0 32 32" xmlns:v="https://vecta.io/nano"><path fill="#fc3" d="M31 22a1 1 0 0 0-1-1h-.596c-.556-2.054-1.39-3.956-2.34-5.65l.35-.35H29a1 1 0 1 0 0-2h-2c-.265 0-.52.105-.707.293l-.298.298a34.98 34.98 0 0 0-2.182-2.99l1.894-1.894a1.03 1.03 0 0 0 .188-.26l1-2a1 1 0 0 0-.447-1.342c-.495-.245-1.095-.046-1.342.447l-.927 1.854-1.682 1.682-1.444-1.475c.702-.837.788-2.195.112-3.364-.291-.503-.695-.901-1.145-1.179C19.117 1.82 17.662 1 16 1s-3.117.82-4.02 2.071a3.38 3.38 0 0 0-1.145 1.179c-.676 1.17-.589 2.527.112 3.364L9.503 9.089 7.822 7.407l-.927-1.854c-.248-.493-.847-.693-1.342-.448a1 1 0 0 0-.448 1.342l1 2a.98.98 0 0 0 .188.26l1.894 1.894c-.701.855-1.45 1.868-2.182 2.99l-.298-.298C5.52 13.105 5.265 13 5 13H3a1 1 0 1 0 0 2h1.586l.35.35c-.95 1.694-1.783 3.596-2.34 5.65H2a1 1 0 1 0 0 2h.165c-.162.977-.272 1.973-.272 3 0 4.361 2.858 4.7 3.734 4.7 1.565 0 3.436-.841 5.231-2.262C12.061 29.461 13.719 30 16 30s3.939-.539 5.142-1.562c1.795 1.421 3.666 2.262 5.231 2.262.876 0 3.734-.339 3.734-4.7 0-1.027-.11-2.023-.272-3H30a1 1 0 0 0 1-1zm-18.888 2.375C10.075 26.922 7.408 28.7 5.627 28.7c-.429 0-1.734 0-1.734-2.7 0-8.341 6.81-15.376 8.429-16.931.542.128 1.463.458 1.733 1.249 1.258 3.746.204 11.367-1.943 14.057zM14.299 6.25c-.533.922-1.6 1.385-2.299.982-.716-.414-.851-1.527-.299-2.482.398-.689 1.069-1.136 1.709-1.136a1.17 1.17 0 0 1 .59.153c.716.415.851 1.528.299 2.483zM18 3.768a1.16 1.16 0 0 1 .59-.153c.64 0 1.311.446 1.709 1.136.552.954.417 2.067-.299 2.481-.699.402-1.766-.061-2.299-.982-.552-.955-.417-2.068.299-2.482zM26.373 28.7c-1.781 0-4.448-1.778-6.485-4.325-2.147-2.69-3.201-10.311-1.943-14.057.27-.791 1.192-1.121 1.733-1.249 1.619 1.555 8.429 8.59 8.429 16.931 0 2.7-1.305 2.7-1.734 2.7z"/></svg>
