<?xml version="1.0" encoding="UTF-8"?>
<svg version="1.1" xmlns="http://www.w3.org/2000/svg" width="512" height="512">
<path d="M0 0 C1.06263062 -0.00845947 1.06263062 -0.00845947 2.14672852 -0.01708984 C7.18250739 0.05175756 11.59177857 0.94436043 16.4375 2.3125 C16.4375 2.9725 16.4375 3.6325 16.4375 4.3125 C15.37273437 4.45945312 14.30796875 4.60640625 13.2109375 4.7578125 C-1.05565577 6.89317377 -15.62016636 10.73010211 -25.24609375 22.34375 C-27.06398414 25.06249408 -27.43195217 27.0488042 -27.5625 30.3125 C-25.93993327 35.87558593 -22.63129032 37.83615574 -17.96875 40.7578125 C-4.9442477 49.17299418 0.32284204 61.10958 4.66748047 75.49047852 C10.06625781 93.08528902 18.37099444 110.29695815 30.4375 124.3125 C31.58025391 125.6428125 31.58025391 125.6428125 32.74609375 127 C34.93480458 129.48029288 37.17130527 131.9030885 39.4375 134.3125 C39.98664063 134.92609375 40.53578125 135.5396875 41.1015625 136.171875 C57.68576924 153.98151573 83.55975247 163.81052562 107.46943665 165.2114563 C113.3222552 165.41070759 119.16465937 165.20340147 125.015625 165.01171875 C125.707185 164.98980028 126.398745 164.96788181 127.11126137 164.94529915 C141.06321785 164.49094071 154.94272838 163.44163286 168.84993839 162.27241898 C190.90432285 160.42089026 212.91634441 158.80695834 235.0625 158.8125 C236.39430801 158.80644241 236.39430801 158.80644241 237.75302124 158.80026245 C262.22728078 158.74755903 285.26999298 163.52132641 304.953125 178.89453125 C311.01672505 182.35535958 316.97793341 181.19286305 323.4375 179.75 C324.26693115 179.56800049 325.0963623 179.38600098 325.95092773 179.19848633 C338.10342478 176.38563497 348.46383027 171.93448339 358.4375 164.3125 C359.0975 163.9825 359.7575 163.6525 360.4375 163.3125 C360.23283526 175.18305474 354.03973096 185.63933906 345.94140625 194.01171875 C338.37311521 200.96604546 329.93885456 206.40704901 321.0546875 211.48828125 C318.21120537 213.47023073 317.58164531 214.12586762 316.4375 217.3125 C316.23597067 219.99659497 316.1366523 222.58515177 316.12890625 225.26953125 C316.10370062 226.87435187 316.07830342 228.4791695 316.05273438 230.08398438 C316.02430133 232.58682098 316.00026967 235.08960384 315.98120117 237.5925293 C315.87294482 249.50429679 314.67162245 260.25203676 311.80834961 271.86401367 C307.26986296 290.71602963 311.1208942 308.39819313 318.99462891 325.66967773 C326.25308421 341.7697818 322.98493081 359.51712167 321.60871315 376.60861588 C321.29743454 380.48155867 321.00494009 384.35399526 320.75537109 388.23144531 C320.51193782 392.00654593 320.22206184 395.77542334 319.89936447 399.54454803 C319.78494757 400.9738007 319.68691082 402.40446714 319.6059761 403.83600616 C319.35283295 408.19384423 318.99779402 412.21929209 317.4375 416.3125 C314.93842258 418.38193983 312.80532716 419.40828717 309.73983765 420.43939209 C307.10326345 421.18411565 307.10326345 421.18411565 305.4375 424.3125 C305.13292376 429.10957574 305.03601265 432.10989714 307.4375 436.3125 C307.4375 437.6325 307.4375 438.9525 307.4375 440.3125 C285.90558511 440.50398936 285.90558511 440.50398936 275.4375 439.3125 C278.47134639 430.84806857 284.57534073 424.12515887 290.6875 417.6875 C295.76383196 412.19725174 299.51015114 406.9770437 299.8125 399.3125 C299.66978686 396.50763793 299.1376016 393.964162 298.4375 391.25 C296.4690756 383.01333053 297.24406437 374.37021082 297.73828125 365.98046875 C298.6941736 349.61951193 299.4234757 333.0685688 289.12890625 319.203125 C280.84242987 310.303281 267.49531371 305.97338192 256.49707031 301.43286133 C241.51352249 295.10571558 230.41767089 286.19082952 223.4375 271.3125 C216.05711757 251.26729214 217.49792481 229.69796596 223.6328125 209.546875 C224.43274771 206.33160142 224.58738435 203.60995573 224.4375 200.3125 C222.7875 199.9825 221.1375 199.6525 219.4375 199.3125 C208.83504389 219.38143477 207.61728881 247.11996977 214.1875 268.5625 C217.57787755 277.8486444 222.02310663 285.4151975 228.8984375 292.53515625 C230.4375 294.3125 230.4375 294.3125 230.4375 296.3125 C198.24863978 306.26563441 158.30263148 305.45845501 125.4375 299.3125 C124.48858887 299.14621094 123.53967773 298.97992188 122.56201172 298.80859375 C80.46431246 291.33931246 80.46431246 291.33931246 74.4375 285.3125 C74.5234375 283.45703125 74.5234375 283.45703125 74.8125 281.125 C74.90273437 280.36832031 74.99296875 279.61164063 75.0859375 278.83203125 C75.32700505 277.10438048 75.6202862 275.38345133 75.95703125 273.671875 C78.27096506 257.49315078 77.18543695 241.60838626 68.21875 227.609375 C64.5646358 222.8974909 60.17014273 218.22338091 54.4375 216.3125 C53.4475 216.9725 52.4575 217.6325 51.4375 218.3125 C51.76023474 221.43764807 52.0696302 222.94539027 54.328125 225.19921875 C55.10671875 225.79347656 55.8853125 226.38773438 56.6875 227 C63.7485801 232.94971773 67.7867878 241.41581157 68.65893555 250.65942383 C69.51797573 269.80191625 65.55238719 284.73650265 58.73022461 302.4465332 C48.34989138 329.65098285 46.46183609 360.25257701 46.375 389.1328125 C46.35590576 391.02060425 46.35590576 391.02060425 46.33642578 392.9465332 C46.32093665 395.32790793 46.33802494 397.70981001 46.39404297 400.09057617 C46.34368616 406.22724043 45.7750611 409.60258994 41.53125 414.18359375 C40.8079248 414.89217529 40.08459961 415.60075684 39.33935547 416.33081055 C36.78914021 418.98807592 35.93549493 421.51865918 35.0625 425.0625 C34.03917653 429.0219011 32.97059592 432.47976019 31.4375 436.3125 C24.1775 435.9825 16.9175 435.6525 9.4375 435.3125 C11.4375 431.3125 11.4375 431.3125 12.42211914 429.44433594 C14.76441108 424.94611677 16.54544221 420.46372823 17.875 415.5625 C18.1841333 414.43062256 18.1841333 414.43062256 18.49951172 413.27587891 C27.82317666 377.55516105 37.32922969 330.83691716 18.0625 296.71875 C15.73995628 293.27959873 13.166091 290.09793219 10.5078125 286.9140625 C-8.83936218 262.60232978 -17.8883464 229.69523199 -17.5546875 199.01171875 C-17.54690781 198.2804628 -17.53912811 197.54920685 -17.53111267 196.79579163 C-17.49455427 193.77645323 -17.4530368 190.75746008 -17.39111328 187.73852539 C-17.03504743 169.28511253 -20.03690113 153.16982826 -30.42578125 137.46875 C-31.5625 135.3125 -31.5625 135.3125 -31.5625 131.3125 C-29.90618918 129.92660727 -28.24616357 128.54487966 -26.56640625 127.1875 C-16.07310687 117.36920818 -11.22581562 101.1984275 -10.3737793 87.21533203 C-10.29602917 84.01597608 -10.28924029 80.82514779 -10.3125 77.625 C-10.30476563 76.54927734 -10.29703125 75.47355469 -10.2890625 74.36523438 C-10.30385155 68.32760324 -10.80106774 63.09307333 -12.5625 57.3125 C-14.22861905 57.269779 -15.89632885 57.27186168 -17.5625 57.3125 C-18.88797967 58.40653188 -18.88797967 58.40653188 -18.61254883 61.10961914 C-18.58185303 62.34317139 -18.55115723 63.57672363 -18.51953125 64.84765625 C-18.49359464 66.22116495 -18.46915643 67.59470258 -18.44604492 68.96826172 C-18.43350677 69.68882751 -18.42096863 70.40939331 -18.40805054 71.15179443 C-18.22723502 83.31468506 -18.09539873 94.80056034 -22.5625 106.3125 C-22.92472656 107.26382813 -23.28695312 108.21515625 -23.66015625 109.1953125 C-26.95387299 116.6759573 -32.90946279 124.0030785 -40.5625 127.3125 C-43.375 127.5 -43.375 127.5 -45.5625 127.3125 C-50.42088101 115.97627765 -49.81848284 102.77547818 -45.5625 91.3125 C-43.4164335 86.86309025 -41.01216131 82.59940729 -38.5625 78.3125 C-35.52462609 72.63609711 -33.49865347 67.39848379 -35.17578125 60.95703125 C-35.89045603 59.04332864 -36.71718478 57.17219349 -37.5625 55.3125 C-39.2125 55.3125 -40.8625 55.3125 -42.5625 55.3125 C-43.50043373 58.64737549 -43.51625209 60.53988554 -42.8125 64 C-42.00423467 69.61586954 -44.85780509 73.57068118 -47.5625 78.3125 C-53.60860977 89.30405616 -56.50513493 99.83559222 -57.5625 112.3125 C-58.33335938 112.27769531 -59.10421875 112.24289063 -59.8984375 112.20703125 C-61.40277344 112.16642578 -61.40277344 112.16642578 -62.9375 112.125 C-63.93523437 112.09019531 -64.93296875 112.05539063 -65.9609375 112.01953125 C-67.24871094 112.16455078 -67.24871094 112.16455078 -68.5625 112.3125 C-70.9388519 115.87702784 -71.21317341 118.66778163 -71.8046875 122.83984375 C-72.73529226 125.87630155 -74.19787826 127.24943933 -76.5625 129.3125 C-77.02398437 128.79300781 -77.48546875 128.27351563 -77.9609375 127.73828125 C-83.30580391 122.02371065 -88.70019863 116.65669279 -96.89941406 116.17529297 C-100.47794302 116.14380834 -104.03359828 116.19642075 -107.60644531 116.40820312 C-114.00699502 116.70819047 -114.00699502 116.70819047 -117.1015625 114.50390625 C-120.23105718 109.80966424 -120.17659853 104.76920404 -119.5625 99.3125 C-118.02218595 96.60154727 -116.48796662 95.01538604 -114.01953125 93.140625 C-109.79887161 89.85681659 -107.29682441 86.50109537 -104.5625 81.875 C-100.26153889 74.60216557 -95.67550048 69.88052211 -89 64.8125 C-82.96748803 60.19880218 -79.07050596 55.21503082 -75.125 48.75 C-70.35916773 41.1309392 -65.284896 36.67816829 -56.5625 34.3125 C-54.25871705 33.84490049 -51.96322498 33.39858466 -49.640625 33.03515625 C-44.98741072 31.41702723 -42.50384536 26.95494164 -39.8125 23.0625 C-33.5846977 14.43320197 -27.10899607 8.14597829 -17.5625 3.3125 C-16.88960938 2.97089844 -16.21671875 2.62929688 -15.5234375 2.27734375 C-10.44551802 0.16971308 -5.42318491 0.04097387 0 0 Z " fill="#ffcc33" transform="translate(135.5625,35.6875)"/>
<path d="M0 0 C6.75 0.875 6.75 0.875 9 2 C8.06251525 6.76554749 7.11312108 11.52319574 6.046875 16.26171875 C0.46396913 41.30579179 -0.37023015 65.51618985 3.02026367 91.00366211 C4.41477268 101.76603801 4.41477268 101.76603801 3 107 C1.546875 108.8359375 1.546875 108.8359375 -0.25 110.375 C-5.94533139 116.26996157 -7.01009684 124.28158773 -9 132 C-14.94 131.67 -20.88 131.34 -27 131 C-25.02413979 127.70689966 -23.18645657 124.81507047 -20.875 121.8125 C-18.1772804 118.30278022 -16.89151527 116.2527957 -16.75048828 111.79516602 C-16.72007446 110.920522 -16.68966064 110.04587799 -16.6583252 109.14472961 C-16.62928101 108.1907579 -16.60023682 107.23678619 -16.5703125 106.25390625 C-16.49875132 104.21124397 -16.42662632 102.16860139 -16.35400391 100.12597656 C-16.31704407 99.05351685 -16.28008423 97.98105713 -16.24200439 96.87609863 C-15.07471202 63.81803748 -13.83544032 30.58360491 0 0 Z " fill="#ffcc33" transform="translate(206,330)"/>
<path d="M0 0 C10.16608978 3.82922715 19.96662897 8.00554058 25.08984375 18.16015625 C30.07370107 29.91922174 29.27420747 42.82230232 28.265625 55.296875 C27.6394588 64.02636854 27.36271739 72.508758 29.53125 81.0234375 C30.49936941 85.10567434 31.08877618 88.92910327 29.04296875 92.8203125 C27.46755448 94.99047971 25.76727783 96.98168838 24 99 C22.56036055 100.69574922 21.12662759 102.39640469 19.69262695 104.09692383 C18.6984875 105.27134681 17.69969904 106.44185202 16.69604492 107.6081543 C14.07297634 110.61349771 14.07297634 110.61349771 12 114 C10.27119018 114.05449838 8.54187288 114.09301688 6.8125 114.125 C5.84957031 114.14820313 4.88664062 114.17140625 3.89453125 114.1953125 C0.87187222 113.9913544 -1.26769985 113.26874632 -4 112 C-2.52375208 108.68597405 -0.609235 106.24329651 1.75 103.5 C8.66347682 94.92426645 13.36465529 86.22504124 13 75 C12.8453125 73.89398438 12.690625 72.78796875 12.53125 71.6484375 C11.53761118 64.26166578 11.66344935 56.73346677 11.52319336 49.28857422 C11.18020305 31.84330668 8.9640891 17.2721518 0 2 C0 1.34 0 0.68 0 0 Z " fill="#ffcc33" transform="translate(397,348)"/>
</svg>
