<svg xmlns="http://www.w3.org/2000/svg" width="80" height="80" viewBox="0 0 512 512" fill="#fc3" xmlns:v="https://vecta.io/nano"><path d="M135.563 35.688l2.147-.017c5.036.069 9.445.961 14.291 2.33v2l-3.227.445c-14.267 2.135-28.831 5.972-38.457 17.586-1.818 2.719-2.186 4.705-2.316 7.969 1.623 5.563 4.931 7.524 9.594 10.445 13.025 8.415 18.292 20.352 22.636 34.733 5.399 17.595 13.704 34.806 25.77 48.822l2.309 2.688c2.189 2.48 4.425 4.903 6.691 7.313l1.664 1.859c16.584 17.81 42.458 27.639 66.368 29.04 5.853.199 11.695-.008 17.546-.2l2.096-.066c13.952-.454 27.831-1.504 41.739-2.673 22.054-1.852 44.066-3.465 66.213-3.46l2.691-.012c24.474-.053 47.517 4.721 67.2 20.094 6.064 3.461 12.025 2.298 18.484.855l2.513-.552c12.152-2.813 22.513-7.264 32.487-14.886l2-1c-.205 11.871-6.398 22.327-14.496 30.699-7.568 6.954-16.003 12.395-24.887 17.477-2.843 1.982-3.473 2.638-4.617 5.824a109.07 109.07 0 0 0-.309 7.957l-.076 4.814-.072 7.509c-.108 11.912-1.31 22.66-4.173 34.271-4.538 18.852-.687 36.534 7.186 53.806 7.258 16.1 3.99 33.847 2.614 50.939l-.853 11.623-.856 11.313-.293 4.291c-.253 4.358-.608 8.383-2.168 12.476-2.499 2.069-4.632 3.096-7.698 4.127-2.637.745-2.637.745-4.302 3.873-.305 4.797-.401 7.797 2 12v4c-21.532.191-21.532.191-32-1 3.034-8.464 9.138-15.187 15.25-21.625 5.076-5.49 8.823-10.71 9.125-18.375-.143-2.805-.675-5.348-1.375-8.062-1.968-8.237-1.193-16.88-.699-25.27.956-16.361 1.685-32.912-8.609-46.777-8.286-8.9-21.634-13.23-32.632-17.77-14.984-6.327-26.079-15.242-33.06-30.12-7.38-20.045-5.94-41.615.195-61.766.8-3.215.955-5.937.805-9.234l-5-1c-10.602 20.069-11.82 47.807-5.25 69.25 3.39 9.286 7.836 16.853 14.711 23.973C366 330 366 330 366 332c-32.189 9.953-72.135 9.146-105 3l-2.875-.504C216.027 327.027 216.027 327.027 210 321c.086-1.855.086-1.855.375-4.187l.273-2.293a94.11 94.11 0 0 1 .871-5.16c2.314-16.179 1.228-32.063-7.738-46.062-3.654-4.712-8.049-9.386-13.781-11.297l-3 2c.323 3.125.632 4.633 2.891 6.887l2.359 1.801c7.061 5.95 11.099 14.416 11.971 23.659.859 19.142-3.107 34.077-9.929 51.787-10.38 27.204-12.268 57.806-12.355 86.686l-.039 3.814.058 7.144c-.05 6.137-.619 9.512-4.863 14.093l-2.192 2.147c-2.55 2.657-3.404 5.188-4.277 8.732-1.023 3.959-2.092 7.417-3.625 11.25l-22-1 2.985-5.868c2.342-4.498 4.123-8.981 5.453-13.882l.625-2.287c9.324-35.721 18.83-82.439-.437-116.557-2.323-3.439-4.896-6.621-7.555-9.805-19.347-24.312-28.396-57.219-28.062-87.902l.024-2.216.14-9.057c.356-18.453-2.646-34.569-13.035-50.27C104 171 104 171 104 167l4.996-4.125c10.493-9.818 15.341-25.989 16.193-39.972.078-3.199.085-6.39.061-9.59l.023-3.26c-.015-6.038-.512-11.272-2.273-17.053a99.22 99.22 0 0 0-5 0c-1.325 1.094-1.325 1.094-1.05 3.797l.093 3.738.073 4.121.038 2.184c.181 12.163.313 23.649-4.154 35.161l-1.098 2.883C108.609 152.363 102.653 159.691 95 163c-2.812.188-2.812.188-5 0-4.858-11.336-4.256-24.537 0-36 2.146-4.449 4.55-8.713 7-13 3.038-5.676 5.064-10.914 3.387-17.355C99.672 94.731 98.845 92.86 98 91h-5c-.938 3.335-.954 5.227-.25 8.688.808 5.616-2.045 9.571-4.75 14.313-6.046 10.992-8.943 21.523-10 34l-2.336-.105-3.039-.082-3.023-.105L67 148c-2.376 3.565-2.651 6.355-3.242 10.527-.931 3.036-2.393 4.41-4.758 6.473l-1.398-1.574c-5.345-5.715-10.739-11.082-18.938-11.563-3.579-.031-7.134.021-10.707.233-6.401.3-6.401.3-9.495-1.904-3.129-4.694-3.075-9.735-2.461-15.191 1.54-2.711 3.075-4.297 5.543-6.172 4.221-3.284 6.723-6.64 9.457-11.266 4.301-7.273 8.887-11.994 15.563-17.062 6.033-4.614 9.929-9.597 13.875-16.062C65.203 76.818 70.278 72.366 79 70c2.304-.468 4.599-.914 6.922-1.277 4.653-1.618 7.137-6.08 9.828-9.973C101.978 50.121 108.454 43.833 118 39l2.039-1.035c5.078-2.108 10.1-2.236 15.523-2.277zM206 330c6.75.875 6.75.875 9 2l-2.953 14.262c-5.583 25.044-6.417 49.254-3.027 74.742 1.395 10.762 1.395 10.762-.02 15.996-1.453 1.836-1.453 1.836-3.25 3.375-5.695 5.895-6.76 13.907-8.75 21.625l-18-1c1.976-3.293 3.814-6.185 6.125-9.187 2.698-3.51 3.983-5.56 4.125-10.017l.092-2.65.088-2.891.216-6.128.112-3.25c1.167-33.058 2.407-66.292 16.242-96.876zm191 18c10.166 3.829 19.967 8.006 25.09 18.16 4.984 11.759 4.184 24.662 3.176 37.137-.626 8.729-.903 17.212 1.266 25.727.968 4.082 1.558 7.906-.488 11.797-1.575 2.17-3.276 4.161-5.043 6.18l-4.307 5.097-2.997 3.511c-2.623 3.005-2.623 3.005-4.696 6.392l-5.187.125-2.918.07c-3.023-.204-5.162-.927-7.895-2.195 1.476-3.314 3.391-5.757 5.75-8.5 6.913-8.576 11.615-17.275 11.25-28.5l-.469-3.352c-.994-7.387-.868-14.915-1.008-22.36-.343-17.445-2.559-32.016-11.523-47.289v-2z"/></svg>
