<svg xmlns="http://www.w3.org/2000/svg" height="80" width="80" viewBox="0 0 512 512" xmlns:v="https://vecta.io/nano"><path fill="#fc3" d="M510.991 107.933c-4.072-2.032-26.738-18.376-43.018-31.599-16.287-13.232-34.324-8.088-34.324-8.088-10.176-14.248-6.104-42.743-22.391-42.743-17.296 3.056-18.312 28.495-8.136 52.918-6.112 10.176-28.495 93.622-63.094 99.725-42.613 7.523-27.479 6.112-66.15 6.112-66.15 0-118.045 50.879-118.045 122.117 0 63.094-2.04 156.716-80.398 156.716H16.413c-22.391 0-18.521 22.391-8.144 22.391h85.485c51.612 0 103.208-55.588 137.614-108.707 6.572.242 13.723-.177 21.141-.177 18.312 0 30.527 20.012 30.527 37.654v41.719c0 18.319 10.176 30.526 40.703 30.526h79.381c0-11.192-1.024-28.495-33.583-28.495H323.23s-1.709-5.112 0-62.07c1.766-58.732-28.648-91.775-52.354-100.144 4.12-1.411 6.734-2.137 6.734-2.137 13.997.596 33.736 12.368 47.298 35.582 23.036-15.82 40.848-30.801 54.733-45l3.668 14.691a9.25 9.25 0 0 0 5.233 6.225l36.857 16.384c3.354 1.492 5.515 4.814 5.515 8.475v8.813c0 5.12 4.153 9.28 9.273 9.28 5.128 0 9.28-4.16 9.28-9.28v-18.28c0-3.693-1.33-17.231-11.667-22.399l-19.336-11.7a9.28 9.28 0 0 1-5.491-7.24l-4.378-31.72c28.939-47.952 18.151-85.284 33.196-114.11 4.048-7.757 51.895-4.072 58.006-6.104s15.265-17.303 11.194-19.335z"/></svg>
