<svg xmlns="http://www.w3.org/2000/svg" fill="#ffcc33" height="80" width="80" viewBox="0 0 512 512" xmlns:v="https://vecta.io/nano"><path d="M506.24 218.983a19.68 19.68 0 0 0-16.712-5.56c-19.305 2.781-83.919 13.48-104.837 34.402-12.383 12.38-19.203 28.842-19.203 46.353a66.33 66.33 0 0 0 .961 11.17l-42.735-2.107c9.649-15.346 13.888-29.742 13.098-43.96-.738-13.288-5.838-24.555-12.906-34.596l98.941-53.273a19.67 19.67 0 0 0 7.992-26.638c-5.15-9.565-17.078-13.139-26.638-7.994l-62.799 33.812 33.812-62.795c5.15-9.564 1.571-21.491-7.992-26.638s-21.491-1.572-26.638 7.992l-53.269 98.929c-10.891-7.666-23.193-12.987-37.866-12.987-13.196 0-26.536 4.277-40.697 13.18l-2.107-42.728c3.657.625 7.388.962 11.172.962a65.12 65.12 0 0 0 46.351-19.199c20.923-20.922 31.622-85.534 34.402-104.838.884-6.136-1.176-12.327-5.559-16.711A19.68 19.68 0 0 0 276.303.2c-19.307 2.781-83.92 13.478-104.838 34.4-12.383 12.38-19.203 28.843-19.203 46.353 0 14.76 4.861 28.763 13.8 40.22l4.909 99.53c-11.029 11.72-21.871 25.1-31.671 39.253l-20.943-20.95c-7.679-7.68-20.131-7.679-27.812-.001s-7.682 20.131-.003 27.813l27.826 27.829c-6.908 13.425-12.413 26.898-15.874 39.75l-39.765-39.765c-7.679-7.679-20.131-7.679-27.812 0s-7.68 20.131 0 27.813L87.973 375.5l-73.277 19.14c-6.819 1.78-12.163 7.076-14.009 13.878s.089 14.072 5.074 19.056l78.664 78.664c3.738 3.738 8.76 5.761 13.906 5.761a19.67 19.67 0 0 0 5.149-.686c6.803-1.846 12.097-7.19 13.878-14.01l19.14-73.278 52.992 52.992c3.84 3.84 8.873 5.761 13.905 5.761s10.066-1.921 13.905-5.762a19.67 19.67 0 0 0 0-27.812l-39.749-39.749c12.85-3.472 26.321-8.982 39.742-15.884l27.822 27.821c3.841 3.84 8.873 5.761 13.905 5.761s10.066-1.921 13.906-5.762a19.67 19.67 0 0 0-.001-27.812l-20.931-20.93c14.217-9.824 27.619-20.657 39.287-31.626l99.545 4.91c11.453 8.938 25.46 13.8 40.22 13.8 17.508 0 33.97-6.819 46.35-19.199 20.923-20.923 31.622-85.535 34.402-104.841a19.66 19.66 0 0 0-5.558-16.71z"/></svg>
