<?xml version="1.0" encoding="UTF-8"?>
<svg version="1.1" xmlns="http://www.w3.org/2000/svg" width="512" height="512">
<path fill="#ffcc33" d="M0 0 C17.34645596 13.67327428 25.81936472 34.92094587 28.53125 56.3359375 C30.56416305 75.05567851 27.83537977 93.28560924 20 110.421875 C19.64123779 111.20828369 19.28247559 111.99469238 18.9128418 112.80493164 C18.19936202 114.34982827 17.47241516 115.88860388 16.72973633 117.41967773 C13.1920985 124.98054464 12.1330051 131.07360235 15 139 C15.95435341 145.5744346 15.95435341 145.5744346 13.75 148.8671875 C12.56567635 150.18858564 11.35469691 151.48634354 10.125 152.765625 C-8.98994628 172.86442881 -16.75042544 199.36372034 -16.25 226.5859375 C-16.00439715 233.63719539 -14.87912356 240.18342222 -13 247 C-12.50693359 248.8253125 -12.50693359 248.8253125 -12.00390625 250.6875 C-5.5272442 272.20167153 7.8001034 291.20301946 27.64428711 302.20288086 C53.89286269 316.28226771 82.80174455 317.58295533 111.24365234 309.35058594 C130.8154543 303.39715315 149.48609273 293.31568263 165 280 C165.83273437 279.28972656 166.66546875 278.57945312 167.5234375 277.84765625 C185.47403156 262.13398237 197.61419029 242.75939193 207.7109375 221.35546875 C208.96831353 219.05789982 209.90503371 217.56234774 212 216 C214.12109375 215.56640625 214.12109375 215.56640625 216.4375 215.5625 C217.19933594 215.54316406 217.96117187 215.52382812 218.74609375 215.50390625 C221.92160205 216.20284829 223.02694948 217.43968177 225 220 C231.27746929 237.16934697 229.03036643 258.55796333 225 276 C224.76651855 277.03036377 224.76651855 277.03036377 224.52832031 278.08154297 C216.9619352 310.10653224 196.81540007 339.00798634 169.0234375 356.61328125 C155.50091659 364.83500052 140.87520433 369.93289115 125.625 373.9375 C114.76871583 377.05501403 109.92609332 381.54340196 103.94921875 391.03125 C97.59316866 400.71180725 89.14086603 405.36915462 78.4375 409.3125 C62.84493418 412.43101316 49.59037416 410.29674527 36 402 C27.24626327 396.08377923 22.67278781 387.22970172 17.875 378.0625 C13.10305492 369.24504768 5.61170456 366.84499179 -3.296875 363.24609375 C-20.94903597 356.11099592 -38.03338532 347.88872946 -53 336 C-53.8343457 335.34281982 -53.8343457 335.34281982 -54.68554688 334.67236328 C-79.59613631 314.86230977 -93.01244735 289.98364999 -97.60742188 258.59228516 C-98.34082894 251.88124564 -98.39358073 245.18033348 -98.375 238.4375 C-98.37445618 237.69221039 -98.37391235 236.94692078 -98.37335205 236.17904663 C-98.28219556 208.93893505 -90.6672754 187.24989055 -75.125 164.875 C-61.58737695 144.90851889 -55.84812201 125.95263391 -54 102 C-55.02609375 102.03351563 -56.0521875 102.06703125 -57.109375 102.1015625 C-68.96030962 101.79220075 -81.68734897 95.7537362 -90.37890625 87.75 C-100.11039748 77.24467935 -104.37048758 65.63679731 -104.2109375 51.46875 C-103.32551365 36.90844674 -96.53752176 24.72061129 -87 14 C-86.40703125 13.31292969 -85.8140625 12.62585938 -85.203125 11.91796875 C-63.61327841 -11.47103172 -26.75744392 -18.13954582 0 0 Z M-53 41 C-54.32659244 45.33569235 -54.54738348 48.77490365 -52.6875 52.9375 C-49.93844975 56.45240008 -49.93844975 56.45240008 -45.625 57.375 C-42.07583855 57.24048614 -42.07583855 57.24048614 -39.5625 55.6875 C-37.01998355 51.3143717 -37.15620386 46.91729477 -38 42 C-40.28595543 38.66903638 -41.56011734 37.3239736 -45.5 36.4375 C-49.06174354 37.2388923 -50.57570422 38.23899647 -53 41 Z " transform="translate(149,37)"/>
<path fill="#ffcc33" d="M0 0 C0.78567352 -0.00067474 1.57134705 -0.00134949 2.38082886 -0.00204468 C13.90065593 0.01369179 24.90450547 0.43309305 36.125 3.25 C36.84284668 3.41628906 37.56069336 3.58257812 38.30029297 3.75390625 C59.56972085 8.72060508 78.41041311 18.16501358 95.125 32.25 C95.74503906 32.74757812 96.36507812 33.24515625 97.00390625 33.7578125 C102.74116497 38.37526892 102.74116497 38.37526892 103.49609375 42.0625 C104.30166305 68.59890058 87.67298316 96.72601987 71.125 116.25 C70.32320312 117.21679688 69.52140625 118.18359375 68.6953125 119.1796875 C48.73635937 142.27972177 16.96330916 159.21381823 -13.68212891 161.45532227 C-16.52070467 161.55188422 -19.34736735 161.57912164 -22.1875 161.5625 C-23.19151855 161.55758545 -24.19553711 161.5526709 -25.22998047 161.54760742 C-44.8251502 161.23990424 -63.40287487 154.62407298 -77.97265625 141.24609375 C-94.30712437 124.10664157 -100.66080944 100.95690066 -100.12109375 77.7734375 C-99.14010422 54.72750426 -88.34483908 34.98932202 -71.875 19.25 C-53.04963528 2.18304847 -24.38049072 0.01874762 0 0 Z M-60.75 90.25 C-62.95508874 93.36306646 -63.56206822 95.20010109 -63.2890625 99.0078125 C-61.62162482 108.03714485 -57.53060847 114.3198314 -50.03125 119.53125 C-44.68377334 122.59947431 -39.00689246 123.64882227 -32.875 123.25 C-29.8873041 122.3808521 -27.12378404 121.33340257 -24.28515625 120.0625 C-21.5306275 119.13390684 -20.54122176 119.18987206 -17.875 120.25 C-15.56372967 121.45446482 -13.33909654 122.77114861 -11.09375 124.09375 C-5.54255213 126.98662777 0.69301376 127.16554511 6.6875 125.56640625 C15.95537996 122.16159059 20.94290199 117.48208763 25.375 108.71484375 C26.26744035 105.78187573 26.02853393 104.15491015 25.125 101.25 C23.60481752 98.81304526 23.60481752 98.81304526 21.125 97.25 C17.625 96.58333333 17.625 96.58333333 14.125 97.25 C11.53720093 99.1908493 10.25433356 101.02905517 8.625 103.8125 C6.97602252 106.4920884 5.90674865 107.78185488 3.125 109.25 C-1.1869908 109.63499918 -4.21362833 109.58981148 -7.875 107.25 C-9.54296875 105.12109375 -9.54296875 105.12109375 -11.0625 102.6875 C-12.77363252 99.81549652 -12.77363252 99.81549652 -14.875 97.25 C-18.20642278 96.74874717 -18.20642278 96.74874717 -21.875 97.25 C-24.625 99.5 -24.625 99.5 -26.875 102.25 C-29.94027582 105.20957666 -32.69165161 105.79612093 -36.77734375 106.4296875 C-39.8763329 106.16422474 -41.44514617 105.18364381 -43.875 103.25 C-45.3515625 100.18359375 -45.3515625 100.18359375 -46.5 96.6875 C-48.0100848 91.60958848 -48.0100848 91.60958848 -51.875 88.25 C-55.87300164 87.64160845 -57.39701252 87.91748697 -60.75 90.25 Z " transform="translate(247.875,174.75)"/>
<path fill="#ffcc33" d="M0 0 C14.56583987 10.99643314 21.71154946 25.78081155 24.83984375 43.5078125 C25.14736417 45.76019177 25.32115038 47.97971486 25.44140625 50.25 C25.52068359 51.71759766 25.52068359 51.71759766 25.6015625 53.21484375 C26.52935435 87.78517472 11.44087404 127.69384957 -10.55859375 154.25 C-13.20298612 156.2752458 -14.5202768 156.25116383 -17.90234375 156.1484375 C-22.01384029 155.13813386 -24.73808316 153.36267588 -28.05859375 150.875 C-48.63434756 136.42420766 -73.33661064 127.82372987 -98.23046875 124.8046875 C-99.390625 124.66289062 -100.55078125 124.52109375 -101.74609375 124.375 C-102.77089844 124.27445313 -103.79570312 124.17390625 -104.8515625 124.0703125 C-108.63704436 122.92319679 -109.66298028 121.72529136 -111.55859375 118.25 C-112.11767642 114.92389942 -112.07753866 111.67761533 -111.99609375 108.3125 C-111.98215576 107.34465576 -111.96821777 106.37681152 -111.95385742 105.37963867 C-111.15515338 73.19472742 -102.83884338 40.05572013 -81.55859375 15.25 C-80.77871094 14.2703125 -79.99882812 13.290625 -79.1953125 12.28125 C-59.9550391 -10.76764082 -24.90026211 -17.03101897 0 0 Z " transform="translate(369.55859375,35.75)"/>
<path fill="#ffcc33" d="M0 0 C9.92943656 11.08094916 13.94533654 23.62230734 13.8125 38.5 C12.40473588 59.41535271 2.63104945 78.12880455 -11.1875 93.5 C-12.11329799 94.55857911 -13.03907845 95.61717355 -13.96484375 96.67578125 C-23.40860028 107.32733212 -33.95770374 115.99932547 -45.4375 124.375 C-46.16984863 124.91060547 -46.90219727 125.44621094 -47.65673828 125.99804688 C-60.18671349 134.9806331 -60.18671349 134.9806331 -66.4375 136.0625 C-70.07671122 135.31811589 -71.51289702 134.09713735 -74.1875 131.5 C-75.6997955 128.81167839 -76.80444381 125.99003065 -77.9375 123.125 C-81.50680907 114.58000122 -85.93247176 107.09907611 -91.1875 99.5 C-93.71270698 95.71218953 -93.66646385 94.00133014 -93.1875 89.5 C-92.00041226 86.79410628 -90.41405889 84.43469793 -88.75 82 C-87.82198351 80.57482595 -86.89491946 79.14903131 -85.96875 77.72265625 C-85.49953125 77.01125488 -85.0303125 76.29985352 -84.546875 75.56689453 C-69.1352924 52.13398177 -57.88311374 26.75240703 -53.04736328 -0.95117188 C-52.24617096 -5.18337883 -51.52321439 -8.01657128 -49.0390625 -11.59375 C-34.81120363 -21.1049762 -10.9084004 -10.40354882 0 0 Z " transform="translate(461.1875,114.5)"/>
<path fill="#ffcc33" d="M0 0 C15.72020081 5.56483866 26.59965556 15.44491385 33.7734375 30.3984375 C38.11374725 40.77613314 37.29260855 55.15740157 33.2421875 65.44921875 C30.92741291 70.02477903 28.07560965 74.08236146 24.90234375 78.09765625 C24.28746094 78.9175 23.67257812 79.73734375 23.0390625 80.58203125 C6.51120031 100.04079405 -21.89259183 106.61748179 -46.17260742 108.90356445 C-51.71753645 109.27149856 -57.26688252 109.32216668 -62.82202148 109.33789062 C-64.92404981 109.34772123 -67.02514768 109.37890627 -69.12695312 109.41015625 C-70.47785888 109.41667739 -71.82877149 109.42193134 -73.1796875 109.42578125 C-74.38858643 109.43512695 -75.59748535 109.44447266 -76.84301758 109.45410156 C-80.42239424 109.06209122 -82.24967188 108.26289813 -85.09765625 106.09765625 C-88.80897648 100.5306759 -86.88973478 94.39196462 -85.66015625 88.16015625 C-84.04264078 79.50603328 -83.67387779 70.95392204 -83.65258789 62.15844727 C-83.52680705 54.87338965 -83.52680705 54.87338965 -81.453125 51.125 C-78.72911862 48.78045719 -76.02798501 47.15157399 -72.84765625 45.47265625 C-51.55220672 33.82388744 -32.70186043 18.13348546 -15.83984375 0.77734375 C-11.31345561 -3.58666275 -5.49476436 -1.60061862 0 0 Z " transform="translate(476.09765625,218.90234375)"/>
<path fill="#ffcc33" d="M0 0 C2.46316661 2.14188401 3.48748076 3.28328276 5 6 C5.35578125 6.59167969 5.7115625 7.18335938 6.078125 7.79296875 C12.04598721 18.59301791 14.03506724 31.18676846 10.875 43.1875 C7.20718809 53.66453679 1.03371195 62.06232365 -8.7421875 67.53515625 C-25.95439974 75.71214904 -45.73792981 75.11350787 -63.54785156 68.92919922 C-76.26075951 64.11186274 -92.98530879 57.64351392 -102 47 C-103.19886845 42.8439227 -103.32490144 40.73455979 -101.5625 36.75 C-99.62636851 33.74634396 -97.45106736 30.92390313 -95.3125 28.0625 C-91.37633199 22.77258449 -88.2022774 17.22197391 -85.14575195 11.39477539 C-81.67366587 4.92778678 -81.67366587 4.92778678 -78 3 C-74.76791509 2.61838609 -71.5691771 2.72425386 -68.3203125 2.8125 C-67.35713104 2.82385986 -66.39394958 2.83521973 -65.40158081 2.84692383 C-61.29831072 2.89551698 -57.19595497 2.97826698 -53.09326172 3.06152344 C-41.02462816 3.28519832 -29.40968751 3.0218726 -17.47415161 1.06713867 C-11.74241377 0.13745492 -5.79468102 -0.81431068 0 0 Z " transform="translate(461,340)"/>
<path fill="#ffcc33" d="M0 0 C5.44913192 1.27116781 12.43847869 3.78517053 15.75 8.48046875 C18.56748328 17.56471788 13.02772999 27.53093963 8.9296875 35.35546875 C5.87863227 40.7563587 2.51778801 45.88033811 -0.97412109 51.00195312 C-12.78875391 68.37273602 -20.46470662 85.53843206 -23.734375 106.3515625 C-24.71279612 109.95373172 -26.04765471 111.87313448 -28.60546875 114.55859375 C-31.6149705 116.06334463 -33.21405743 115.98252016 -36.60546875 115.55859375 C-47.81247739 110.64849966 -55.10234284 101.748765 -59.60546875 90.55859375 C-63.16535997 78.18716999 -61.08006207 64.00925232 -55.16796875 52.84375 C-47.562686 40.101245 -37.53478771 30.14811872 -26.15478516 20.82763672 C-19.36896839 15.2693834 -13.73629144 9.43092708 -8.23046875 2.62109375 C-5.40341806 0.39983964 -3.60457408 -0.22743966 0 0 Z " transform="translate(60.60546875,145.44140625)"/>
<path fill="#ffcc33" d="M0 0 C1.90458984 0.10248047 1.90458984 0.10248047 3.84765625 0.20703125 C5.11480469 0.26246094 6.38195312 0.31789063 7.6875 0.375 C8.75097656 0.58769531 9.81445312 0.80039062 10.91015625 1.01953125 C12.11157227 3.05981445 12.11157227 3.05981445 12.91015625 5.01953125 C13.78752441 4.98811035 13.78752441 4.98811035 14.68261719 4.95605469 C17.3416209 4.8727301 20.0003498 4.82082228 22.66015625 4.76953125 C24.04074219 4.71925781 24.04074219 4.71925781 25.44921875 4.66796875 C32.27656725 4.56902167 32.27656725 4.56902167 35.4921875 6.85546875 C37.36091071 9.70745955 37.84182864 11.60315067 37.91015625 15.01953125 C36.78405594 18.10149 35.97780794 20.28680063 33.22764587 22.17424011 C30.08565852 23.3202621 27.36203301 23.2817369 24.01782227 23.29418945 C23.33276611 23.29930038 22.64770996 23.30441132 21.94189453 23.30967712 C19.68252775 23.32355097 17.42346676 23.32261808 15.1640625 23.3203125 C13.58991889 23.32420063 12.01577634 23.32853555 10.44163513 23.33329773 C7.1439168 23.34075516 3.84630555 23.34047213 0.54858398 23.33520508 C-3.67267584 23.32941083 -7.89349683 23.34634236 -12.1146841 23.36954975 C-15.36524508 23.38429764 -18.61570063 23.38515737 -21.86628914 23.38204002 C-23.42238293 23.3825527 -24.97848271 23.3877804 -26.53454399 23.39785194 C-28.71268929 23.41022001 -30.88998307 23.40342336 -33.06811523 23.3918457 C-34.30625473 23.39247513 -35.54439423 23.39310455 -36.8200531 23.39375305 C-40.39944646 22.98409776 -42.26863401 22.23305825 -45.08984375 20.01953125 C-46.63975517 16.38060879 -47.3701423 14.14072546 -46.40234375 10.26953125 C-44.22220852 6.53215656 -44.22220852 6.53215656 -42.08984375 5.01953125 C-39.21902218 4.75789957 -36.56997882 4.67064491 -33.703125 4.7265625 C-32.47761177 4.73292976 -32.47761177 4.73292976 -31.2273407 4.73942566 C-28.61867268 4.75621434 -26.01077813 4.79386606 -23.40234375 4.83203125 C-21.6334747 4.84707788 -19.86459354 4.86076633 -18.09570312 4.87304688 C-13.76011879 4.90611839 -9.42511239 4.95790135 -5.08984375 5.01953125 C-4.94546875 4.38015625 -4.80109375 3.74078125 -4.65234375 3.08203125 C-3.75613211 -0.20407809 -3.58330304 0.02265046 0 0 Z " transform="translate(206.08984375,462.98046875)"/>
<path fill="#ffcc33" d="M0 0 C2.7894371 1.09151887 4.53136536 2.03588392 5.86938477 4.78857422 C6.62741752 7.04942834 7.23862078 9.31066742 7.8125 11.625 C8.02841797 12.39457031 8.24433594 13.16414063 8.46679688 13.95703125 C9.85518319 19.21967651 10.78115745 24.55999213 10 30 C7.57481488 33.60103245 6.08666493 34.73920042 1.875 35.75 C-5.36128183 34.34942932 -13.78930578 29.09824681 -18 23 C-18.96340727 19.75344947 -18.88615214 17.26424403 -18 14 C-13.86469657 6.72186597 -9.2044231 -1.12707222 0 0 Z " transform="translate(23,90)"/>
</svg>
