<svg xmlns="http://www.w3.org/2000/svg" width="512" height="512" fill="#fc3" xmlns:v="https://vecta.io/nano"><path d="M149 37c17.346 13.673 25.819 34.921 28.531 56.336 2.033 18.72-.696 36.95-8.531 54.086l-1.087 2.383-2.183 4.615c-3.538 7.561-4.597 13.654-1.73 21.58.954 6.574.954 6.574-1.25 9.867a151.65 151.65 0 0 1-3.625 3.898c-19.115 20.099-26.875 46.598-26.375 73.82.246 7.051 1.371 13.597 3.25 20.414l.996 3.688c6.477 21.514 19.804 40.516 39.648 51.515 26.249 14.079 55.157 15.38 83.599 7.148 19.572-5.953 38.243-16.034 53.757-29.35l2.523-2.152c17.951-15.714 30.091-35.088 40.188-56.492 1.257-2.298 2.194-3.793 4.289-5.355 2.121-.434 2.121-.434 4.438-.437l2.309-.059c3.176.699 4.281 1.936 6.254 4.496 6.277 17.169 4.03 38.558 0 56l-.472 2.082c-7.566 32.025-27.713 60.926-55.505 78.532-13.523 8.222-28.148 13.32-43.398 17.324-10.856 3.118-15.699 7.606-21.676 17.094-6.356 9.681-14.808 14.338-25.512 18.281-15.593 3.119-28.847.984-42.437-7.312-8.754-5.916-13.327-14.77-18.125-23.937-4.772-8.817-12.263-11.218-21.172-14.816C128.051 393.111 110.967 384.889 96 373l-1.686-1.328c-24.911-19.81-38.327-44.689-42.922-76.08-.733-6.711-.786-13.412-.768-20.155l.002-2.258c.091-27.24 7.706-48.929 23.248-71.304C87.413 181.909 93.152 162.953 95 139l-3.109.102c-11.851-.309-24.578-6.348-33.27-14.352-9.731-10.505-13.992-22.113-13.832-36.281C45.674 73.908 52.462 61.721 62 51l1.797-2.082C85.387 25.529 122.243 18.86 149 37zM96 78c-1.327 4.336-1.547 7.775.313 11.938 2.749 3.515 2.749 3.515 7.063 4.438 3.549-.135 3.549-.135 6.063-1.687 2.543-4.373 2.406-8.77 1.563-13.687-2.286-3.331-3.56-4.676-7.5-5.562-3.562.801-5.076 1.801-7.5 4.563zm151.875 96.75l2.381-.002c11.52.016 22.524.435 33.744 3.252l2.175.504c21.269 4.967 40.11 14.411 56.825 28.496l1.879 1.508c5.737 4.617 5.737 4.617 6.492 8.305.806 26.536-15.823 54.664-32.371 74.188l-2.43 2.93c-19.959 23.1-51.732 40.034-82.377 42.276-2.839.097-5.665.124-8.505.107l-3.042-.015c-19.595-.308-38.173-6.924-52.743-20.302-16.334-17.139-22.688-40.289-22.148-63.473.981-23.046 11.776-42.784 28.246-58.523 18.825-17.067 47.495-19.231 71.875-19.25zM187.125 265c-2.205 3.113-2.812 4.95-2.539 8.758 1.667 9.029 5.758 15.312 13.258 20.523 5.347 3.068 11.024 4.118 17.156 3.719 2.988-.869 5.751-1.917 8.59-3.187 2.755-.929 3.744-.873 6.41.188 2.311 1.204 4.536 2.521 6.781 3.844 5.551 2.893 11.787 3.072 17.781 1.473 9.268-3.405 14.255-8.084 18.688-16.852.892-2.933.654-4.56-.25-7.465-1.52-2.437-1.52-2.437-4-4-3.5-.667-3.5-.667-7 0-2.588 1.941-3.871 3.779-5.5 6.563-1.649 2.68-2.718 3.969-5.5 5.438-4.312.385-7.339.34-11-2-1.668-2.129-1.668-2.129-3.187-4.562-1.711-2.872-1.711-2.872-3.812-5.437-3.331-.501-3.331-.501-7 0-2.75 2.25-2.75 2.25-5 5-3.065 2.96-5.817 3.546-9.902 4.18-3.099-.265-4.668-1.246-7.098-3.18-1.477-3.066-1.477-3.066-2.625-6.562-1.51-5.078-1.51-5.078-5.375-8.437-3.998-.608-5.522-.333-8.875 2zM369.559 35.75c14.566 10.996 21.712 25.781 24.84 43.508.308 2.252.481 4.472.602 6.742l.16 2.965c.928 34.57-14.161 74.479-36.16 101.035-2.644 2.025-3.962 2.001-7.344 1.898-4.111-1.01-6.836-2.786-10.156-5.273-20.576-14.451-45.278-23.051-70.172-26.07l-3.516-.43-3.105-.305c-3.785-1.147-4.811-2.345-6.707-5.82-.559-3.326-.519-6.572-.437-9.937l.042-2.933C258.403 108.945 266.72 75.806 288 51l2.363-2.969c19.24-23.049 54.295-29.312 79.195-12.281zm91.629 78.75c9.929 11.081 13.945 23.622 13.813 38.5-1.408 20.915-11.181 39.629-25 55l-2.777 3.176c-9.444 10.652-19.993 19.324-31.473 27.699l-2.219 1.623c-12.53 8.983-12.53 8.983-18.781 10.064-3.639-.744-5.075-1.965-7.75-4.562-1.512-2.688-2.617-5.51-3.75-8.375-3.569-8.545-7.995-16.026-13.25-23.625-2.525-3.788-2.479-5.499-2-10 1.187-2.706 2.773-5.065 4.438-7.5l2.781-4.277 1.422-2.156c15.412-23.433 26.664-48.814 31.5-76.518.801-4.232 1.524-7.065 4.008-10.643 14.228-9.511 38.131 1.19 49.039 11.594zm14.91 104.402c15.72 5.565 26.6 15.445 33.773 30.398 4.34 10.378 3.519 24.759-.531 35.051-2.315 4.576-5.167 8.633-8.34 12.648l-1.863 2.484c-16.528 19.459-44.932 26.035-69.212 28.322-5.545.368-11.094.419-16.649.434l-6.305.072-4.053.016-3.663.028c-3.579-.392-5.407-1.191-8.255-3.356-3.711-5.567-1.792-11.706-.562-17.937 1.618-8.654 1.986-17.206 2.008-26.002.126-7.285.126-7.285 2.199-11.033 2.724-2.345 5.425-3.973 8.605-5.652 21.295-11.649 40.146-27.339 57.008-44.695 4.526-4.364 10.345-2.378 15.84-.777zM461 340c2.463 2.142 3.487 3.283 5 6l1.078 1.793c5.968 10.8 7.957 23.394 4.797 35.395-3.668 10.477-9.841 18.875-19.617 24.348-17.212 8.177-36.996 7.578-54.806 1.394-12.713-4.818-29.437-11.286-38.452-21.93-1.199-4.156-1.325-6.265.438-10.25 1.936-3.004 4.111-5.826 6.25-8.687 3.936-5.29 7.11-10.841 10.167-16.668 3.472-6.467 3.472-6.467 7.146-8.395 3.232-.382 6.431-.276 9.68-.187l2.919.034 12.308.215c12.069.224 23.684-.04 35.619-1.994 5.732-.93 11.679-1.881 17.474-1.067zM60.605 145.441c5.449 1.271 12.438 3.785 15.75 8.48 2.817 9.084-2.722 19.05-6.82 26.875-3.051 5.401-6.412 10.525-9.904 15.646-11.815 17.371-19.491 34.536-22.76 55.35-.978 3.602-2.313 5.522-4.871 8.207-3.01 1.505-4.609 1.424-8 1-11.207-4.91-18.497-13.81-23-25-3.56-12.371-1.475-26.549 4.438-37.715 7.605-12.743 17.633-22.696 29.013-32.016 6.786-5.558 12.418-11.397 17.924-18.207 2.827-2.221 4.626-2.849 8.23-2.621zM206.09 462.98l3.848.207 3.84.168L217 464c1.201 2.04 1.201 2.04 2 4l1.772-.063 7.978-.187 2.789-.102c6.827-.099 6.827-.099 10.043 2.188 1.869 2.852 2.35 4.748 2.418 8.164-1.126 3.082-1.932 5.267-4.683 7.155-3.142 1.146-5.866 1.107-9.21 1.12l-2.076.015-6.778.011-4.722.013-9.893.002a1843.11 1843.11 0 0 0-12.663.034l-9.752.012-4.668.016a594.23 594.23 0 0 1-6.534-.006l-3.752.002c-3.579-.41-5.449-1.161-8.27-3.374-1.55-3.639-2.28-5.879-1.312-9.75 2.18-3.737 2.18-3.737 4.313-5.25a74.06 74.06 0 0 1 8.387-.293l2.476.013 7.825.093 5.307.041L201 468l.438-1.937c.896-3.286 1.069-3.059 4.652-3.082zM23 90c2.789 1.092 4.531 2.036 5.869 4.789l1.943 6.836.654 2.332C32.855 109.22 33.781 114.56 33 120c-2.425 3.601-3.913 4.739-8.125 5.75C17.639 124.349 9.211 119.098 5 113c-.963-3.247-.886-5.736 0-9 4.135-7.278 8.796-15.127 18-14z"/></svg>
